<svg width="227" height="44" viewBox="0 0 227 44" fill="none" xmlns="http://www.w3.org/2000/svg">
<g clip-path="url(#clip0_299:348)">
<path d="M65.9535 19.6508L62.0821 34.0521H56.5739L50.5684 10.981H56.6054L59.7088 26.5702H59.8348L63.6747 10.981H68.3582L72.1983 26.5702H72.3241L75.4339 10.981H81.4709L75.4654 34.0521H69.9509L66.0794 19.6508H65.9535ZM98.8263 29.3254V34.0521H83.0887V10.981H98.8263V15.714H88.9242V20.308H98.2409V24.6239H88.9242V29.3254H98.8263ZM112.317 34.0521H101.338V10.981H112.04C114.297 10.981 116.071 11.4928 117.359 12.5165C117.99 13.0169 118.494 13.6604 118.829 14.3943C119.163 15.1281 119.32 15.9312 119.285 16.7377C119.31 17.9694 118.859 19.1629 118.026 20.0678C117.191 20.9943 116.051 21.5886 114.816 21.7424V21.8688C116.299 21.9085 117.714 22.5088 118.775 23.5497C119.293 24.0462 119.703 24.6451 119.978 25.3086C120.253 25.9721 120.388 26.6857 120.374 27.4043C120.409 28.3256 120.231 29.2425 119.855 30.0833C119.478 30.9241 118.912 31.6661 118.203 32.2511C116.73 33.4518 114.768 34.0521 112.317 34.0521ZM107.18 15.1389V20.3838H110.189C111.084 20.4435 111.973 20.1937 112.707 19.6761C113.002 19.4454 113.238 19.1472 113.394 18.8064C113.551 18.4656 113.624 18.0921 113.607 17.7172C113.626 17.3591 113.563 17.0014 113.421 16.6724C113.279 16.3434 113.062 16.0521 112.789 15.8214C112.131 15.331 111.322 15.0894 110.504 15.1389H107.18ZM107.18 29.9004H110.655C111.641 29.9665 112.621 29.6923 113.431 29.1232C113.754 28.8529 114.01 28.5103 114.177 28.1229C114.344 27.7354 114.419 27.314 114.394 26.8925C114.416 26.4771 114.337 26.0625 114.165 25.6841C113.993 25.3056 113.733 24.9745 113.406 24.7187C112.59 24.1581 111.61 23.8869 110.623 23.9478H107.18V29.9004Z" fill="#EA2F2F"/>
<path d="M127.57 34.0521H122.03V10.981H126.695L136.446 24.4154H136.572V10.981H142.112V34.0521H137.497L127.702 20.5102H127.57V34.0521ZM159.92 34.0521L158.466 28.9968H150.95L149.483 34.0521H143.528L151.246 10.981H158.397L166.127 34.0521H159.92ZM154.645 15.8783L152.083 24.763H157.32L154.771 15.8783H154.645ZM172.662 10.981V25.2432C172.59 26.3945 172.97 27.5283 173.719 28.4028C174.55 29.1287 175.614 29.5285 176.715 29.5285C177.817 29.5285 178.881 29.1287 179.712 28.4028C180.459 27.5273 180.836 26.3937 180.763 25.2432V10.981H186.611V25.8688C186.657 27.0458 186.437 28.218 185.968 29.2978C185.499 30.3777 184.794 31.3375 183.904 32.1058C182.1 33.6729 179.706 34.4565 176.722 34.4565C173.738 34.4565 171.331 33.6729 169.501 32.1058C168.612 31.3375 167.906 30.3777 167.438 29.2978C166.969 28.218 166.749 27.0458 166.794 25.8688V10.981H172.662ZM200.467 34.0521H194.638V15.7266H188.298V10.9936H206.806V15.7266H200.467V34.0521ZM207.756 27.3728H213.315C213.379 27.7697 213.533 28.1468 213.764 28.4753C213.996 28.8038 214.298 29.075 214.65 29.2685C215.497 29.7769 216.471 30.0313 217.457 30.0015C218.412 30.048 219.36 29.813 220.183 29.3254C220.493 29.1533 220.752 28.9017 220.933 28.5964C221.114 28.2911 221.212 27.9431 221.215 27.5876C221.225 27.2904 221.156 26.9959 221.015 26.734C220.875 26.4721 220.668 26.2521 220.416 26.0963C219.55 25.6198 218.609 25.297 217.633 25.1421L214.624 24.5544C212.828 24.3016 211.153 23.4984 209.828 22.2543C209.284 21.6788 208.86 21 208.581 20.2577C208.302 19.5155 208.174 18.7247 208.203 17.932C208.174 16.9018 208.391 15.8796 208.835 14.9507C209.28 14.0217 209.94 13.2131 210.759 12.5923C212.662 11.1844 214.988 10.4731 217.35 10.5765C220.196 10.5765 222.432 11.2084 224.061 12.4723C224.859 13.0803 225.503 13.8687 225.94 14.7734C226.378 15.6782 226.596 16.6737 226.579 17.6793H221.197C221.176 17.2862 221.065 16.9033 220.872 16.5611C220.678 16.2188 220.408 15.9265 220.082 15.7077C219.294 15.2055 218.371 14.9565 217.438 14.9936C216.573 14.9474 215.714 15.1679 214.977 15.6255C214.689 15.8027 214.452 16.0519 214.288 16.3488C214.125 16.6456 214.041 16.98 214.045 17.3191C214.04 17.6163 214.112 17.9097 214.253 18.171C214.394 18.4323 214.6 18.6525 214.851 18.8104C215.654 19.2927 216.544 19.6125 217.47 19.7519L220.447 20.308C222.709 20.7293 224.371 21.4812 225.433 22.5639C225.978 23.1401 226.4 23.8216 226.674 24.5669C226.947 25.3122 227.067 26.1056 227.026 26.8988C227.06 27.9565 226.838 29.0067 226.38 29.9597C225.922 30.9127 225.24 31.7401 224.394 32.3712C222.644 33.7319 220.288 34.4123 217.325 34.4123C214.362 34.4123 212.054 33.7803 210.4 32.5165C209.577 31.9386 208.906 31.1684 208.446 30.2723C207.985 29.3762 207.749 28.3811 207.756 27.3728V27.3728Z" fill="#212121"/>
<path d="M42.7188 41.1311L39.6028 36.5118L39.9175 36.7266C40.1599 36.8931 40.4526 36.9693 40.745 36.942C41.0374 36.9148 41.3111 36.7857 41.5187 36.5773C41.7264 36.3688 41.8549 36.0941 41.8821 35.8006C41.9093 35.507 41.8334 35.2132 41.6676 34.9699L37.9346 29.4344C40.1304 25.1613 40.7319 20.2409 39.6304 15.5616C38.5289 10.8824 35.797 6.75268 31.928 3.91822C28.059 1.08376 23.3079 -0.268633 18.5326 0.10523C13.7573 0.479093 9.27241 2.55459 5.88797 5.95693C2.50353 9.35927 0.442568 13.8642 0.0771047 18.6583C-0.288359 23.4524 1.06578 28.2197 3.8951 32.0994C6.72442 35.979 10.8424 38.7153 15.5055 39.8142C20.1685 40.9131 25.0693 40.3021 29.3229 38.0916L34.8311 41.8325C35.0735 41.9981 35.3658 42.0735 35.6577 42.0458C35.9496 42.0181 36.2228 41.8891 36.43 41.6808C36.6374 41.4728 36.7661 41.1987 36.7936 40.9056C36.8212 40.6126 36.746 40.3191 36.5811 40.0758L36.3671 39.7598L40.9687 42.9194C41.1772 43.06 41.4227 43.1348 41.6738 43.1342C41.8395 43.1352 42.0037 43.1033 42.1571 43.0404C42.3105 42.9775 42.4501 42.8848 42.5677 42.7677C42.7832 42.5578 42.9168 42.2775 42.9445 41.9774C42.9722 41.6773 42.8921 41.3771 42.7188 41.1311V41.1311Z" fill="white"/>
<path d="M34.944 31.8168C35.5112 31.0923 36.0226 30.3254 36.4737 29.5229L40.6221 35.6778L34.944 31.8168ZM31.6894 35.0838C30.9677 35.6531 30.2037 36.1664 29.4043 36.6193L35.5357 40.7836L31.6894 35.0838ZM31.6894 35.0838L41.6545 41.8515L34.9125 31.8484C33.9766 33.0574 32.8938 34.1443 31.6894 35.0838V35.0838Z" fill="#EA2F2F"/>
<path d="M6.71646 33.5544C4.39124 31.2225 2.71251 28.3218 1.84632 25.1391C0.980124 21.9564 0.956419 18.6019 1.77754 15.4071C2.59867 12.2124 4.23624 9.2881 6.52827 6.92334C8.8203 4.55858 11.6875 2.83521 14.8463 1.92366C18.0052 1.01212 21.3464 0.943936 24.5395 1.72584C27.7327 2.50775 30.6673 4.1127 33.0531 6.38199C35.439 8.65128 37.1936 11.5063 38.1434 14.6649C39.0932 17.8235 39.2053 21.1763 38.4687 24.3917C38.3597 24.8424 38.1331 25.2559 37.812 25.5895C37.491 25.923 37.0871 26.1647 36.6421 26.2896C36.1971 26.4144 35.7271 26.418 35.2802 26.2999C34.8334 26.1818 34.426 25.9463 34.1 25.6176V25.6176L26.6025 18.1042C22.5045 13.9904 17.3425 12.2337 13.9558 13.5038C13.8354 13.5469 13.7261 13.6164 13.6357 13.7071C13.5454 13.7978 13.4762 13.9075 13.4332 14.0283C12.1742 17.428 13.918 22.6097 18.0161 26.7235L25.5009 34.2369C25.8284 34.5633 26.0633 34.9713 26.1817 35.419C26.3002 35.8668 26.2977 36.3381 26.1747 36.7846C26.0516 37.231 25.8124 37.6365 25.4815 37.9595C25.1507 38.2825 24.7402 38.5113 24.2922 38.6223C21.1748 39.3408 17.9268 39.2527 14.8526 38.3662C11.7784 37.4798 8.9788 35.8241 6.71646 33.5544V33.5544ZM34.3769 27.7661C33.1183 30.1587 31.2777 32.1932 29.0261 33.6808C24.6196 29.5733 20.616 25.6808 18.4316 23.1595C14.2642 18.338 14.2328 15.9241 14.1761 16.2084C13.9369 17.3459 14.5349 20.4928 17.651 24.2527C19.5395 26.5528 23.1969 30.0536 27.7671 34.4454C28.0145 34.8544 28.1411 35.3256 28.1323 35.804C31.4375 34.102 34.1134 31.3827 35.7682 28.0441C35.5297 28.0951 35.2832 28.0968 35.044 28.049C34.8048 28.0012 34.5778 27.9049 34.3769 27.7661V27.7661Z" fill="#212121"/>
</g>
<defs>
<clipPath id="clip0_299:348">
<rect width="227" height="44" fill="white"/>
</clipPath>
</defs>
</svg>
